<?xml version="1.0" encoding="UTF-8" standalone="no"?>
<svg
   id="svg"
   version="1.1"
   width="251.29744"
   height="247.16458"
   viewBox="0 0 251.29744 247.16459"
   sodipodi:docname="image2vector(4).svg"
   xmlns:inkscape="http://www.inkscape.org/namespaces/inkscape"
   xmlns:sodipodi="http://sodipodi.sourceforge.net/DTD/sodipodi-0.dtd"
   xmlns="http://www.w3.org/2000/svg"
   xmlns:svg="http://www.w3.org/2000/svg">
  <defs
     id="defs1" />
  <sodipodi:namedview
     id="namedview1"
     pagecolor="#ffffff"
     bordercolor="#000000"
     borderopacity="0.25"
     inkscape:showpageshadow="2"
     inkscape:pageopacity="0.0"
     inkscape:pagecheckerboard="0"
     inkscape:deskcolor="#d1d1d1">
    <inkscape:page
       x="0"
       y="-2.1043121e-14"
       width="251.29744"
       height="247.16458"
       id="page2"
       margin="0"
       bleed="0" />
  </sodipodi:namedview>
  <g
     id="svgg"
     transform="translate(-42.92305,-61.565291)">
    <path
       id="path0"
       d="m 138.154,62.094 c -7.296,2.802 -6.11,9.541 2.798,15.905 9.281,6.631 9.946,11.064 2.439,16.249 -22.705,15.679 -21.123,44.578 3.108,56.771 14.075,7.082 35.826,-0.873 41.317,-15.112 4.24,-10.995 4.248,-18.987 0.03,-27.825 -3.514,-7.363 -6.246,-10.113 -15.156,-15.26 -4.689,-2.708 -5.986,-4.208 -9.169,-10.597 -7.108,-14.273 -18.037,-22.946 -25.367,-20.131 m 101.979,22.292 c -1.74,0.63 -4.363,1.608 -5.828,2.172 -5.654,2.179 -12.272,4.551 -19.176,6.873 -13.026,4.38 -14.318,6.06 -11.615,15.094 5.092,17.021 0.683,33.459 -12.477,46.519 -18.528,18.387 -51.71,16.253 -67.521,-4.344 -2.168,-2.824 -5.034,-7.638 -7.332,-12.315 -4.36,-8.876 -7.437,-9.16 -23.835,-2.205 -2.552,1.083 -5.903,2.375 -7.446,2.872 -1.543,0.496 -6.364,2.085 -10.714,3.531 -4.351,1.446 -8.056,2.629 -8.234,2.629 -0.589,0 -11.781,4.395 -14.616,5.74 -7.229,3.428 -8.847,8.802 -3.947,13.114 2.009,1.769 13.148,6.356 25.048,10.316 4.762,1.585 13.455,4.607 19.317,6.717 5.862,2.109 16.203,5.698 22.981,7.976 19.233,6.464 29.768,10.16 36.636,12.854 3.48,1.365 8.726,3.256 11.657,4.202 10.848,3.5 10.864,3.54 10.793,27.508 -0.035,11.908 0.06,16.411 0.373,17.652 3.006,11.902 15.918,16.218 24.432,8.167 4.19,-3.964 4.886,-6.858 5.165,-21.49 0.235,-12.336 0.365,-12.897 3.354,-14.404 3.153,-1.59 3.979,-1.366 32.486,8.843 6.924,2.48 10.884,1.736 17.652,-3.318 28.541,-21.313 41.934,-54.517 34.638,-85.875 -0.448,-1.923 -1.209,-5.296 -1.691,-7.494 -3.599,-16.399 -16.835,-36.226 -31.116,-46.612 -8.47,-6.159 -12.351,-7.125 -18.984,-4.722 m 6.828,37.476 c 4.061,1.874 4.729,6.335 1.388,9.268 -2.111,1.854 -5.353,1.691 -7.416,-0.372 -4.304,-4.304 0.528,-11.435 6.028,-8.896 m -28.672,29.434 c 3.626,2.071 3.643,7.791 0.029,9.813 -2.51,1.404 -6.11,0.621 -7.477,-1.628 -3.015,-4.958 2.495,-11.013 7.448,-8.185 m 38.815,4.9 c 1.79,0.913 2.77,2.41 2.943,4.498 0.438,5.279 -5.812,8.207 -9.224,4.32 -4.203,-4.786 0.698,-11.667 6.281,-8.818 M 46.429,182.46 c -2.984,1.405 -4.203,6.634 -3.112,13.355 0.997,6.144 2.578,7.486 13.22,11.219 8.441,2.962 25.385,8.88 29.891,10.442 2.015,0.698 6.146,2.175 9.179,3.282 3.034,1.108 8.28,2.84 11.657,3.849 3.378,1.009 8.914,2.835 12.303,4.057 3.389,1.222 7.96,2.865 10.158,3.651 2.198,0.786 6.02,2.253 8.493,3.26 18.009,7.331 22.273,5.98 21.331,-6.756 -0.36,-4.858 -1.043,-6.7 -3.344,-9.014 -2.42,-2.433 -3.779,-2.956 -34.973,-13.46 -6.136,-2.067 -13.18,-4.517 -15.653,-5.445 -7.039,-2.643 -12.965,-4.707 -29.809,-10.382 -8.609,-2.901 -17.436,-5.973 -19.614,-6.829 -4.81,-1.887 -7.583,-2.238 -9.727,-1.229 m 185.483,2.868 c 4.613,1.646 5.17,7.821 0.907,10.075 -4.663,2.466 -9.769,-2.579 -7.483,-7.396 0.823,-1.734 2.968,-3.132 4.806,-3.132 0.274,0 1.071,0.204 1.77,0.453 m 56.514,34.151 c -1.588,0.862 -3.034,2.244 -9.196,8.789 -6.058,6.434 -10.724,10.576 -16.152,14.34 -5.769,4.002 -7.646,6.073 -8.423,9.297 -0.64,2.652 -0.281,52.064 0.389,53.554 2.261,5.032 8.163,4.252 17.394,-2.299 12.072,-8.566 19.355,-22.246 21.144,-39.713 0.777,-7.581 0.875,-40.354 0.127,-42.001 -1.172,-2.578 -2.941,-3.237 -5.283,-1.967 m -241.132,1.202 c -3.297,1.428 -4.168,3.656 -4.152,10.626 0.019,8.977 2.186,11.814 11.313,14.816 1.282,0.421 4.579,1.697 7.327,2.834 2.748,1.137 6.27,2.485 7.827,2.996 1.557,0.51 4.554,1.566 6.661,2.344 2.107,0.779 6.123,2.11 8.924,2.957 4.953,1.498 21.015,7.074 35.872,12.453 4.03,1.459 9.062,3.192 11.183,3.852 7.136,2.219 18.426,6.115 22.772,7.858 2.372,0.951 7.168,2.68 10.658,3.842 13.879,4.622 29.307,9.953 35.154,12.148 6.922,2.598 19.203,6.969 25.978,9.245 10.627,3.57 13.062,2.142 13.267,-7.783 0.213,-10.308 -1.388,-13.046 -9.314,-15.923 -1.899,-0.689 -6.676,-2.498 -10.614,-4.018 -12.09,-4.669 -13.88,-4.869 -22.738,-2.54 -13.993,3.678 -24.683,-0.243 -33.927,-12.447 -4.605,-6.08 -4.999,-6.31 -18.567,-10.883 -5.382,-1.814 -12.036,-4.205 -14.785,-5.312 -6.62,-2.667 -10.208,-3.951 -15.229,-5.449 -4.749,-1.417 -15.276,-5.094 -24.313,-8.492 -3.389,-1.274 -10.658,-3.804 -16.153,-5.621 -5.495,-1.818 -12.43,-4.213 -15.411,-5.321 -7.258,-2.7 -9.553,-3.127 -11.733,-2.182 m 174.394,22.108 c -4.031,1.291 -6.398,13.568 -3.547,18.4 2.701,4.579 16.389,8.936 19.498,6.207 4.035,-3.543 3.578,-16.161 -0.722,-19.936 -3.248,-2.852 -12.267,-5.618 -15.229,-4.671"
       stroke="none"
       fill="#685f57"
       fill-rule="evenodd" />
  </g>
</svg>
