<?xml version="1.0" encoding="UTF-8" standalone="no"?>
<svg
   id="svg"
   version="1.1"
   width="269.94751"
   height="278.08191"
   viewBox="0 0 269.94751 278.0819"
   sodipodi:docname="image2vector(5).svg"
   xmlns:inkscape="http://www.inkscape.org/namespaces/inkscape"
   xmlns:sodipodi="http://sodipodi.sourceforge.net/DTD/sodipodi-0.dtd"
   xmlns="http://www.w3.org/2000/svg"
   xmlns:svg="http://www.w3.org/2000/svg">
  <defs
     id="defs1" />
  <sodipodi:namedview
     id="namedview1"
     pagecolor="#ffffff"
     bordercolor="#000000"
     borderopacity="0.25"
     inkscape:showpageshadow="2"
     inkscape:pageopacity="0.0"
     inkscape:pagecheckerboard="0"
     inkscape:deskcolor="#d1d1d1">
    <inkscape:page
       x="0"
       y="0"
       width="269.94751"
       height="278.08191"
       id="page2"
       margin="0"
       bleed="0" />
  </sodipodi:namedview>
  <g
     id="svgg"
     transform="translate(-87.398163,-42.29022)">
    <path
       id="path0"
       d="m 282.295,42.417 c -3.17,0.671 -4.571,3.276 -4.496,8.363 0.191,13.096 -6.677,19.172 -27.841,24.628 -23.398,6.032 -33.336,11.792 -41.124,23.835 -6.881,10.64 -6.823,20.185 0.122,20.185 3.229,0 4.75,-1.689 8.491,-9.432 5.542,-11.472 15.109,-17.33 40.285,-24.672 18.176,-5.3 26.632,-10.538 31.194,-19.321 5.375,-10.349 1.189,-25.24 -6.631,-23.586 m 36.452,13.143 c -2.38,0.62 -3.693,3.006 -4.843,8.801 -2.613,13.168 -7.231,16.532 -30.473,22.205 -16.432,4.01 -19.9,5.431 -30.656,12.567 -7.349,4.875 -13.294,16.489 -10.82,21.136 2.645,4.966 7.633,3.648 12.306,-3.25 6.66,-9.833 16.103,-14.965 34.275,-18.625 18.286,-3.683 24.086,-6.37 30.969,-14.348 9.811,-11.371 9.286,-31.099 -0.758,-28.486 M 93.692,146.139 c -4.028,1.275 -5.663,3.264 -6.184,7.521 -0.402,3.282 0.384,33.897 0.994,38.711 0.172,1.355 0.312,3.561 0.312,4.902 0,1.342 0.383,5.381 0.851,8.975 3.802,29.201 10.049,51.572 17.981,64.389 0.691,1.116 2.323,3.846 3.627,6.066 2.584,4.399 5.955,9.07 9.955,13.793 7.013,8.282 5.05,10.538 -10.547,12.121 -14.293,1.451 -20.52,4.722 -17.149,9.007 2.536,3.224 19.437,5.845 47.09,7.302 3.608,0.191 9.967,0.574 14.13,0.853 10.807,0.724 68.598,0.809 83.431,0.123 9.555,-0.443 26.871,-1.55 31.191,-1.995 23.933,-2.464 25.092,-2.656 29.162,-4.809 3.342,-1.768 4.021,-3.726 2.05,-5.908 -2.242,-2.481 -5.265,-3.32 -16.482,-4.575 -15.845,-1.773 -16.946,-3.906 -7.738,-14.989 3.343,-4.023 5.899,-7.716 8.748,-12.636 2.171,-3.751 5.379,-7.244 7.669,-8.35 1.828,-0.884 3.413,-1.216 13.721,-2.879 6.978,-1.126 9.1,-1.687 18.437,-4.875 9.824,-3.355 12.651,-5.108 20.089,-12.46 17.954,-17.747 16.007,-47.844 -4.071,-62.931 -7.114,-5.346 -12.941,-8.372 -20.748,-10.777 -11.583,-3.568 -12.375,-4.477 -12.729,-14.602 -0.319,-9.158 -1.868,-11.364 -8.511,-12.124 -4.566,-0.522 -203.615,-0.38 -205.279,0.147 m 45.538,16.693 c 5.864,0.761 7.81,3.786 6.792,10.558 -1.551,10.321 -1.708,12.113 -1.908,21.732 -0.204,9.839 -0.151,10.935 1.04,21.867 1.126,10.327 2.204,17.068 4.035,25.231 0.436,1.943 1.195,5.652 1.685,8.243 0.491,2.59 1.506,7.202 2.257,10.25 1.982,8.051 1.544,10.66 -1.766,10.528 -3.469,-0.139 -10.793,-7.222 -15.667,-15.152 -0.878,-1.429 -2.728,-4.415 -4.111,-6.636 -12.095,-19.42 -17.595,-40.287 -18.117,-68.742 -0.227,-12.384 0.458,-14.749 4.949,-17.072 1.846,-0.955 15.572,-1.487 20.811,-0.807 m 176.671,30.865 c 6.375,3.088 12.051,10.368 13.305,17.068 2.825,15.094 -4.053,26.546 -18.61,30.986 -7.801,2.38 -11.359,-0.94 -9.657,-9.012 0.286,-1.354 1.046,-6.019 1.689,-10.367 0.644,-4.348 1.318,-8.739 1.498,-9.756 0.18,-1.018 0.55,-4.081 0.823,-6.808 1.174,-11.718 4.398,-15.284 10.952,-12.111"
       stroke="none"
       fill="#626451"
       fill-rule="evenodd"
       style="fill:#675e56;fill-opacity:1" />
  </g>
</svg>
