<?xml version="1.0" encoding="UTF-8" standalone="no"?>
<svg
   id="svg"
   version="1.1"
   width="142.276"
   height="199.94695"
   viewBox="0 0 142.276 199.94695"
   sodipodi:docname="cup.svg"
   inkscape:version="1.4 (e7c3feb100, 2024-10-09)"
   xmlns:inkscape="http://www.inkscape.org/namespaces/inkscape"
   xmlns:sodipodi="http://sodipodi.sourceforge.net/DTD/sodipodi-0.dtd"
   xmlns="http://www.w3.org/2000/svg"
   xmlns:svg="http://www.w3.org/2000/svg">
  <sodipodi:namedview
     id="namedview1"
     pagecolor="#ffffff"
     bordercolor="#000000"
     borderopacity="0.25"
     inkscape:showpageshadow="2"
     inkscape:pageopacity="0.0"
     inkscape:pagecheckerboard="0"
     inkscape:deskcolor="#d1d1d1"
     inkscape:zoom="3.9960601"
     inkscape:cx="71.070003"
     inkscape:cy="99.973473"
     inkscape:window-width="1920"
     inkscape:window-height="1008"
     inkscape:window-x="0"
     inkscape:window-y="0"
     inkscape:window-maximized="1"
     inkscape:current-layer="svgg" />
  <defs
     id="defs1" />
  <g
     id="svgg"
     transform="translate(-129,-100.05305)">
    <path
       id="path0"
       d="m 150,100.741 c -1.683,0.901 -2.704,2.539 -3.626,5.814 -0.378,1.345 -1.363,4.695 -2.188,7.445 -0.826,2.75 -1.82,6.08 -2.21,7.4 -0.389,1.32 -1.253,4.2 -1.919,6.4 -0.665,2.2 -1.076,4.136 -0.912,4.301 0.817,0.827 121.858,0.13 121.786,-0.701 -0.067,-0.772 -2.069,-7.618 -5.148,-17.6 -0.814,-2.64 -1.646,-5.504 -1.848,-6.364 -0.658,-2.798 -1.958,-5.302 -3.26,-6.279 l -1.275,-0.957 -49,-0.104 c -47.239,-0.1 -49.05,-0.077 -50.4,0.645 m -20.03,35.891 c -0.937,0.997 -0.97,1.237 -0.97,6.968 0,5.731 0.033,5.971 0.97,6.968 l 0.969,1.032 H 200 269.061 l 0.969,-1.032 c 0.918,-0.976 0.977,-1.34 1.108,-6.793 l 0.138,-5.761 -1.207,-1.207 -1.207,-1.207 H 199.9 130.939 l -0.969,1.032 m 8.83,18.977 c 0,0.446 0.263,3.011 0.583,5.7 0.677,5.671 2.523,22.268 2.835,25.491 0.118,1.21 0.317,2.965 0.443,3.9 l 0.23,1.7 h 57.119 57.12 l 0.222,-1.5 c 0.123,-0.825 0.332,-2.76 0.466,-4.3 0.133,-1.54 0.58,-5.59 0.992,-9 0.413,-3.41 0.955,-8.354 1.205,-10.987 0.251,-2.632 0.618,-5.782 0.818,-7 0.199,-1.217 0.363,-2.798 0.365,-3.513 l 0.002,-1.3 H 200 c -61.172,0 -61.2,0 -61.2,0.809 m 4.678,40.29 c -0.171,0.301 0.186,3.946 1.712,17.501 0.84,7.466 2.036,18.195 3.788,34 0.561,5.06 1.066,9.74 1.121,10.4 l 0.101,1.2 49.712,0.102 c 39.581,0.08 49.74,-10e-4 49.851,-0.4 0.141,-0.509 1.012,-8.324 2.063,-18.502 0.318,-3.08 0.762,-7.04 0.986,-8.8 0.388,-3.05 0.829,-7.025 2.948,-26.6 0.512,-4.73 0.857,-8.731 0.767,-8.892 -0.218,-0.387 -112.829,-0.397 -113.049,-0.009 m 62.722,7.476 c 18.863,5.099 25.009,27.77 11.316,41.745 -11.498,11.735 -32.006,8.544 -39.628,-6.165 -9.884,-19.077 7.684,-41.155 28.312,-35.58 m -9.442,2.652 c -26.349,3.874 -23.031,42.983 3.642,42.914 26.04,-0.067 28.553,-39.583 2.731,-42.936 -3.307,-0.429 -3.304,-0.429 -6.373,0.022 m 10.168,8.401 c 3.906,1.085 6.057,5.54 5.077,10.517 -2.185,11.107 -15.093,19.472 -21.599,13.997 -8.618,-7.251 5.147,-27.673 16.522,-24.514 M 206,218.051 c -2.252,1.338 -4.571,4.492 -7.617,10.355 -1.567,3.015 -3.676,6.429 -4.689,7.586 -1.773,2.028 -1.794,2.08 -0.573,1.449 2.798,-1.447 5.181,-4.538 8.501,-11.028 1.177,-2.302 2.997,-5.317 4.044,-6.7 1.046,-1.382 1.864,-2.509 1.818,-2.504 -0.046,0.005 -0.714,0.384 -1.484,0.842 M 150.799,263.3 c -0.001,0.495 0.279,3.33 0.622,6.3 0.343,2.97 1.14,9.884 1.771,15.364 1.299,11.288 1.651,12.247 5.171,14.105 l 1.763,0.931 h 39.852 39.852 l 1.78,-0.9 c 3.511,-1.776 3.912,-2.855 5.189,-13.946 1.727,-14.995 2.414,-21.288 2.407,-22.054 -0.006,-0.663 -2.618,-0.7 -49.206,-0.7 h -49.2 l -0.001,0.9"
       stroke="none"
       fill="#5c5c5c"
       fill-rule="evenodd"
       style="display:inline;fill:#675e56;fill-opacity:1"
       inkscape:export-filename="cup.svg"
       inkscape:export-xdpi="96"
       inkscape:export-ydpi="96" />
  </g>
</svg>
