<?xml version="1.0" encoding="UTF-8" standalone="no"?>
<svg
   id="svg"
   version="1.1"
   width="234.50305"
   height="400.1088"
   viewBox="0 0 234.50305 400.1088"
   sodipodi:docname="cupwithice.svg"
   inkscape:export-filename="cupwithice.svg"
   inkscape:export-xdpi="96"
   inkscape:export-ydpi="96"
   inkscape:version="1.4 (e7c3feb100, 2024-10-09)"
   xmlns:inkscape="http://www.inkscape.org/namespaces/inkscape"
   xmlns:sodipodi="http://sodipodi.sourceforge.net/DTD/sodipodi-0.dtd"
   xmlns="http://www.w3.org/2000/svg"
   xmlns:svg="http://www.w3.org/2000/svg">
  <defs
     id="defs1" />
  <sodipodi:namedview
     id="namedview1"
     pagecolor="#ffffff"
     bordercolor="#000000"
     borderopacity="0.25"
     inkscape:showpageshadow="2"
     inkscape:pageopacity="0.0"
     inkscape:pagecheckerboard="0"
     inkscape:deskcolor="#d1d1d1"
     inkscape:zoom="1.9969569"
     inkscape:cx="117.17829"
     inkscape:cy="200.0544"
     inkscape:window-width="1920"
     inkscape:window-height="1008"
     inkscape:window-x="0"
     inkscape:window-y="0"
     inkscape:window-maximized="1"
     inkscape:current-layer="svg">
    <inkscape:page
       x="0"
       y="0"
       width="234.50305"
       height="400.1088"
       id="page2"
       margin="0"
       bleed="0" />
  </sodipodi:namedview>
  <g
     id="svgg"
     style="fill:#675e56;fill-opacity:1"
     transform="translate(-82.395906,0.1194856)">
    <path
       id="path0"
       d="m 224.407,1.527 c -5.848,3.637 -5.651,2.034 -5.654,45.916 l -0.003,39.239 -61.972,0.214 -61.971,0.213 -2.798,1.918 c -5.176,3.547 -11.253,25.21 -9.206,32.814 0.931,3.456 5.506,8.621 7.653,8.64 0.737,0.006 1.805,0.306 2.371,0.665 0.784,0.497 3.152,31.064 9.891,127.651 9.723,139.372 8.719,129.983 14.528,135.792 5.655,5.656 1.898,5.413 83.479,5.394 80.856,-0.019 75.605,0.298 81.804,-4.935 5.943,-5.018 4.942,4.233 14.756,-136.322 6.727,-96.34 9.11,-127.087 9.89,-127.582 0.566,-0.358 1.618,-0.657 2.34,-0.663 8.168,-0.075 9.792,-15.338 3.705,-34.834 -2.475,-7.926 -6.303,-8.928 -34.113,-8.928 H 256.25 V 47.617 c 0,-42.291 0.106,-41.167 -4.283,-45.273 -2.993,-2.8 -23.398,-3.404 -27.56,-0.817 m 76.757,100.231 c 0.227,0.967 1.067,5.01 1.867,8.984 l 1.454,7.227 h -27.126 c -32.759,0 -33.609,0.185 -33.609,7.314 0,5.27 2.03,5.967 17.395,5.967 h 13.278 l -0.484,2.93 c -0.266,1.611 -0.488,4.37 -0.493,6.131 l -0.008,3.202 -9.571,0.464 c -6.955,0.338 -11.385,1.011 -16.211,2.463 -25.582,7.697 -28.784,8.34 -41.503,8.341 -8.985,0 -14.447,-1.095 -23.632,-4.739 -13.773,-5.464 -42.972,-6.902 -54.024,-2.661 -1.328,0.509 -1.695,-1.07 -2.251,-9.686 l -0.416,-6.445 h 50.792 50.793 l 1.917,-1.918 c 2.029,-2.029 2.535,-5.626 1.153,-8.207 -1.641,-3.067 -3.62,-3.156 -70.344,-3.156 H 95.515 l 1.454,-7.227 c 0.8,-3.974 1.64,-8.017 1.867,-8.984 L 99.249,100 H 200 300.751 l 0.413,1.758 M 112.765,134.57 c 0.244,1.826 1.56,18.789 2.926,37.696 2.63,36.415 2.835,37.619 6.702,39.453 3.219,1.526 4.787,11.165 2.114,12.992 -5.193,3.55 -5.279,-4.53 0.803,76.078 5.814,77.065 5.121,73.595 15.706,78.599 l 3.906,1.847 H 200 255.078 l 3.938,-1.834 c 4.283,-1.995 7.757,-5.582 9.55,-9.861 0.819,-1.954 3.652,-36.011 10.009,-120.313 4.877,-64.672 8.88,-117.674 8.896,-117.782 0.016,-0.107 1.268,-0.195 2.782,-0.195 h 2.752 l -0.485,6.055 c -0.267,3.33 -4.256,60.159 -8.864,126.286 -8.335,119.606 -8.387,120.24 -10.166,121.68 -2.787,2.257 -144.193,2.257 -146.98,0 -1.779,-1.44 -1.831,-2.074 -10.166,-121.68 -4.608,-66.127 -8.597,-122.956 -8.864,-126.286 l -0.485,-6.055 h 2.664 c 2.543,0 2.684,0.15 3.106,3.32 m 68.254,56.166 c 6.357,4.787 11.686,8.81 11.84,8.94 1.119,0.936 -18.14,24.429 -19.308,23.554 -0.708,-0.53 -6.13,-4.583 -12.049,-9.005 -7.583,-5.667 -10.582,-8.345 -10.155,-9.068 1.601,-2.713 17.081,-23.07 17.562,-23.096 0.303,-0.016 5.752,3.887 12.11,8.675 m 70.542,1.215 c 0.002,1.224 -4.731,14.502 -5.461,15.319 -0.309,0.346 -4.276,-0.654 -8.815,-2.222 l -8.254,-2.851 1.909,-5.2 c 1.049,-2.86 2.447,-6.671 3.107,-8.469 l 1.199,-3.268 8.157,2.878 c 4.486,1.583 8.157,3.299 8.158,3.813 m -24.995,56.881 10.529,10.55 -10.735,10.735 -10.735,10.735 -10.735,-10.735 -10.735,-10.735 10.529,-10.55 c 5.791,-5.803 10.714,-10.551 10.941,-10.551 0.227,0 5.15,4.748 10.941,10.551 m -53.091,38.082 c 0.214,1.117 2.067,17.419 1.992,17.525 -0.055,0.079 -3.901,0.584 -8.545,1.124 -10.05,1.168 -9.495,1.607 -10.255,-8.108 -0.303,-3.879 -0.714,-7.476 -0.913,-7.994 -0.254,-0.663 1.893,-1.168 7.294,-1.715 10.399,-1.055 10.384,-1.053 10.427,-0.832 m 52.517,33.098 c 3.966,1.983 7.331,3.714 7.477,3.847 0.199,0.18 -6.415,14.409 -7.362,15.838 -0.227,0.342 -15.951,-7.597 -15.951,-8.053 0,-1.02 7.469,-15.238 8.005,-15.238 0.341,0 3.865,1.623 7.831,3.606"
       stroke="none"
       fill="#000000"
       fill-rule="evenodd"
       style="fill:#675e56;fill-opacity:1" />
  </g>
</svg>
