<?xml version="1.0" encoding="UTF-8" standalone="no"?>
<svg
   id="svg"
   version="1.1"
   width="382.63226"
   height="67.73185"
   viewBox="0 0 382.63226 67.73185"
   xmlns="http://www.w3.org/2000/svg"
   xmlns:svg="http://www.w3.org/2000/svg">
  <defs
     id="defs1" />
  <g
     id="svgg"
     transform="translate(-8.6838809,-13.412987)">
    <path
       id="path0"
       d="m 39.146363,13.552931 c -3.432012,0.123486 -4.307537,0.272558 -4.933865,0.839925 -0.400494,0.361557 -1.269344,0.604079 -2.945857,0.822125 -1.190357,0.153523 -1.567489,0.300371 -2.613224,1.013473 -0.673053,0.459456 -1.406179,0.834363 -1.628676,0.834363 -0.655253,0 -1.593077,0.47058 -1.91236,0.958961 -0.200247,0.30482 -0.653028,0.554017 -1.382817,0.759826 -0.885537,0.251421 -1.163658,0.430531 -1.512978,0.976761 -0.235846,0.368232 -0.714214,0.789863 -1.064647,0.935599 -0.418293,0.17466 -0.725339,0.478368 -0.895549,0.885537 -0.190235,0.456118 -0.409394,0.650803 -0.825463,0.733126 -0.605191,0.121261 -2.998143,2.346228 -2.998143,2.787884 0,0.134611 -0.320396,0.501731 -0.713102,0.817676 -0.392707,0.314833 -0.811001,0.808776 -0.931149,1.096909 -0.119036,0.288133 -0.507293,0.722002 -0.861063,0.964523 -0.462793,0.315946 -0.697527,0.655253 -0.83325,1.20482 -0.485043,1.966871 -0.551792,2.109269 -1.095796,2.333991 -0.626329,0.259208 -0.869962,0.800988 -1.020148,2.261679 -0.121261,1.19147 -0.707539,2.708898 -1.105809,2.861308 -1.6843,0.646353 -1.534115,18.843249 0.169098,20.450788 0.468356,0.440543 0.648578,0.792088 0.725339,1.416191 0.05785,0.456119 0.151298,1.20927 0.209147,1.674288 0.09011,0.718665 0.213597,0.920024 0.824351,1.343881 0.615203,0.427193 0.748701,0.646353 0.923361,1.51854 0.280346,1.410629 0.49283,1.85451 0.88665,1.85451 0.451668,0 0.783188,0.355995 0.783188,0.841038 0,0.416069 1.387267,2.496413 1.664276,2.496413 0.08789,0 0.328182,0.272559 0.533992,0.606304 0.606303,0.98121 2.73226,3.101604 3.109392,3.101604 0.191347,0 0.576266,0.287021 0.8555,0.636341 0.279233,0.350432 1.041284,0.898887 1.694312,1.220395 0.653028,0.321507 1.428429,0.857724 1.725463,1.192582 0.472805,0.533992 0.688627,0.624103 1.789986,0.742027 1.15587,0.123485 1.283806,0.182447 1.660938,0.759826 0.34487,0.52843 0.653028,0.701977 1.984671,1.116934 0.866625,0.270333 1.883435,0.688627 2.258342,0.928924 0.871074,0.558466 1.802223,0.773176 4.273049,0.987885 1.547465,0.133498 2.112607,0.260321 2.546476,0.568479 1.470703,1.046847 14.285403,0.944499 16.700605,-0.133498 0.478368,-0.212484 1.6754,-0.461681 2.829046,-0.587391 2.009145,-0.220272 2.266129,-0.309271 4.396535,-1.533003 0.517305,-0.297033 1.244869,-0.518417 1.919035,-0.581829 1.099133,-0.104573 1.685412,-0.433868 1.884547,-1.061309 0.121261,-0.381582 0.997898,-0.733127 1.83226,-0.734239 0.596292,0 1.779974,-0.605192 1.779974,-0.907787 0,-0.280346 1.146971,-0.903337 1.929047,-1.04796 0.410507,-0.07676 1.011248,-0.392706 1.390605,-0.732014 0.612978,-0.548454 2.222742,-1.390605 2.659948,-1.390605 0.100124,0 0.479481,-0.259208 0.841038,-0.577379 l 0.657478,-0.577379 2.035845,0.06786 2.034732,0.06786 0.234735,-0.674165 c 0.226946,-0.651915 0.212484,-0.699752 -0.490606,-1.549689 -0.398269,-0.481706 -0.724227,-1.005686 -0.724227,-1.162546 0,-0.157973 -0.32262,-0.594066 -0.716439,-0.968973 -0.394932,-0.374907 -0.822126,-0.999011 -0.950061,-1.386155 -0.127936,-0.387144 -0.503955,-1.005685 -0.8377,-1.37503 -0.332633,-0.369344 -0.74314,-1.002348 -0.911125,-1.406179 -0.362669,-0.86885 -0.794313,-1.38393 -1.333867,-1.589739 -0.288134,-0.110136 -0.482818,-0.479481 -0.726452,-1.380593 -0.70754,-2.613224 -3.652284,-2.580962 -3.831394,0.04005 -0.089,1.290481 -1.57639,3.153891 -2.855746,3.577747 -0.317058,0.105686 -0.770951,0.39827 -1.009022,0.651916 -0.252534,0.269221 -0.953399,0.615203 -1.686526,0.834363 -0.931149,0.277008 -1.353892,0.511742 -1.638688,0.913349 -0.443881,0.622991 -0.578492,0.67639 -2.306179,0.918911 -0.987885,0.139061 -1.504078,0.332633 -2.247217,0.844375 -1.442891,0.993448 -1.713225,1.027935 -8.255741,1.042398 -10.164764,0.02448 -11.873539,-0.127933 -12.430893,-1.103581 -0.259209,-0.452781 -0.499505,-0.560692 -1.853398,-0.832138 -1.368355,-0.274784 -1.637576,-0.397157 -2.246104,-1.024598 -0.38047,-0.391594 -1.071322,-0.857724 -1.535228,-1.034609 -0.557354,-0.213597 -0.937823,-0.505068 -1.122496,-0.861063 -0.15241,-0.29592 -0.555129,-0.65414 -0.893324,-0.795426 -0.36712,-0.153522 -0.757602,-0.525092 -0.968973,-0.921136 -0.194685,-0.364895 -0.641904,-0.8555 -0.994561,-1.090234 -0.490605,-0.325958 -0.708652,-0.656365 -0.927811,-1.409517 -0.20136,-0.691965 -0.434981,-1.073547 -0.788751,-1.288256 -0.55513,-0.33597 -0.778739,-0.786526 -1.077997,-2.169343 -0.110136,-0.50618 -0.436093,-1.340543 -0.724227,-1.853398 -1.492953,-2.655499 -1.421754,-12.211733 0.103461,-14.011732 0.133498,-0.15686 0.372682,-0.845488 0.530655,-1.529665 0.371569,-1.601976 0.622991,-2.137081 1.069097,-2.278367 0.198022,-0.06341 0.557354,-0.544004 0.798763,-1.069096 0.240297,-0.526205 0.739802,-1.247095 1.109146,-1.604202 0.369345,-0.357107 0.823238,-0.942274 1.009023,-1.300493 0.222497,-0.430531 0.595179,-0.765389 1.100246,-0.988998 0.419407,-0.184673 1.023485,-0.660816 1.342768,-1.05686 0.389369,-0.485043 0.8644,-0.81545 1.450679,-1.010135 0.478368,-0.159085 1.03016,-0.436094 1.224844,-0.615203 0.798764,-0.733127 1.777749,-1.161433 3.240665,-1.416192 0.954511,-0.166873 1.725463,-0.416069 2.018046,-0.650803 0.8288,-0.668603 1.327193,-0.769839 4.73473,-0.961186 5.47342,-0.307045 10.482934,-0.0011 11.521994,0.704202 0.622991,0.422744 2.001358,0.792089 4.022741,1.076884 0.64969,0.09234 1.089121,0.301483 1.599751,0.762052 0.489493,0.442768 0.994561,0.691965 1.658713,0.817675 1.142521,0.216935 1.448454,0.368232 2.058095,1.023485 0.55513,0.597404 1.321631,1.019035 1.851173,1.019035 0.212484,0 0.779851,0.394932 1.266007,0.881087 0.485042,0.483931 1.062421,1.022373 1.282693,1.194808 0.222497,0.173547 0.453894,0.627441 0.520643,1.019035 0.368232,2.154881 0.863287,3.043755 1.48739,2.671073 0.198022,-0.117923 0.735352,-0.320395 1.193695,-0.448331 0.793201,-0.221384 0.854388,-0.288133 1.224845,-1.328305 0.255871,-0.718665 0.531767,-1.158096 0.803213,-1.279357 0.226947,-0.101236 0.64969,-0.65414 0.940049,-1.229294 0.290358,-0.574042 0.807663,-1.258219 1.150308,-1.51854 0.460568,-0.351545 0.68529,-0.724227 0.867737,-1.435104 0.181335,-0.705315 0.460568,-1.171445 1.060197,-1.762174 0.462793,-0.457231 0.814338,-0.975648 0.814338,-1.203708 0,-0.220271 0.280346,-0.66749 0.624103,-0.993448 1.541903,-1.466253 0.945612,-2.073669 -2.044745,-2.084794 -1.207044,-0.0045 -2.361802,-0.05896 -2.565387,-0.121261 -0.204697,-0.06341 -0.591841,-0.163535 -0.862175,-0.222496 -0.294808,-0.06564 -0.64079,-0.363783 -0.867737,-0.748702 -0.294808,-0.498393 -0.53288,-0.664153 -1.085784,-0.750926 -0.911124,-0.144623 -1.89011,-0.633004 -2.115944,-1.05686 C 71.429527,19.364546 70.663026,18.990751 69.647328,18.824991 68.600481,18.653669 68.218899,18.455646 68.077614,18.00954 67.95524,17.625734 67.383424,17.348725 66.170817,17.087291 65.73806,16.993843 65.09282,16.66121 64.736825,16.348602 64.061548,15.756761 63.281696,15.476415 61.747581,15.275056 61.248076,15.210532 60.280215,14.870112 59.596038,14.519679 57.743753,13.571843 49.447962,13.179136 39.146363,13.552931 M 326.46641,23.969116 c -0.0857,0.230284 -0.26366,0.720889 -0.39604,1.092459 -0.40383,1.130283 0.58294,1.086896 -24.81061,1.086896 -21.36748,0 -23.24646,0.02447 -23.85054,0.312608 -0.98121,0.467243 -0.89555,1.02126 0.23251,1.506303 1.69765,0.729789 1.53634,-1.901235 1.4796,24.249919 -0.0567,26.523836 0.11792,24.071922 -1.7644,24.785024 -0.79987,0.303708 -0.97342,0.448331 -0.97342,0.813226 0,0.915574 -0.64524,0.891099 25.77291,0.99011 27.78539,0.104574 25.41914,-0.02559 25.94201,1.418417 0.4105,1.133621 1.3105,1.242644 1.67317,0.203584 0.29815,-0.856612 0.26032,-12.887011 -0.0423,-13.488864 -0.38604,-0.765389 -0.9445,-0.68974 -1.54969,0.210259 -0.48505,0.72089 -1.55081,1.537453 -2.62769,2.011371 -0.46836,0.206922 -31.62012,0.278121 -32.63582,0.07454 -0.95229,-0.190235 -1.05019,-0.787638 -1.05019,-6.374531 0,-5.382197 0.059,-5.859452 0.75872,-6.125336 1.63424,-0.621878 20.43632,-0.137948 21.29405,0.547342 0.10791,0.08677 0.48838,0.20136 0.84549,0.255872 0.3571,0.05562 0.81545,0.127935 1.02014,0.16131 0.36379,0.06007 0.37046,-0.04116 0.37046,-6.057474 v -6.11866 l -0.80433,0.06452 c -0.47836,0.03782 -1.11915,0.270333 -1.57638,0.570704 -2.06255,1.355005 -1.66539,1.311618 -11.9859,1.311618 h -9.29258 l -0.31261,-0.695302 c -0.42608,-0.950061 -0.47725,-10.54857 -0.059,-11.053638 0.23918,-0.289246 1.4885,-0.308158 16.84078,-0.261434 18.8566,0.05896 16.89529,-0.13906 17.31581,1.74215 0.26254,1.17367 0.71866,1.454016 1.34499,0.826575 0.55735,-0.556242 0.722,-12.598877 0.18912,-13.781448 -0.37268,-0.826575 -1.08912,-0.974535 -1.34833,-0.27812 M 208.6432,24.827953 c -0.39716,0.643016 -0.84438,1.135846 -1.09246,1.202595 -0.23029,0.0623 -10.83226,0.113473 -23.55907,0.114586 -25.43694,0.0033 -24.33113,-0.04561 -24.19875,1.064647 0.0423,0.355994 0.21471,0.536217 0.65526,0.684177 0.32929,0.110136 0.78764,0.390482 1.02014,0.622991 l 0.42164,0.422744 0.0534,22.169574 c 0.0601,24.7739 0.0222,25.613825 -1.167,25.804059 -1.52855,0.243634 -1.91792,1.133621 -0.71644,1.636464 0.73758,0.308158 16.2011,0.294808 17.09109,-0.01446 0.76427,-0.266996 0.49171,-1.21817 -0.43721,-1.526328 -0.49283,-0.163535 -1.00457,-0.551792 -1.48405,-1.124721 l -0.7309,-0.875525 -0.0523,-8.725209 -0.0512,-8.726322 0.48393,-0.453894 0.48281,-0.455005 9.6508,-0.05229 c 7.90865,-0.04339 9.82101,-0.0056 10.59974,0.211372 0.52287,0.145735 1.19259,0.320395 1.48851,0.388257 0.29592,0.06786 0.7843,0.387144 1.08467,0.708652 1.00457,1.075771 1.06576,0.726452 1.06576,-6.168722 0,-6.579229 -0.0801,-7.163283 -0.8822,-6.437943 -0.19802,0.17911 -1.10247,0.716439 -2.01026,1.194807 l -1.65093,0.86885 -9.45611,0.06341 c -5.20086,0.03449 -9.63411,0.0178 -9.85215,-0.03671 -0.89778,-0.224722 -1.15365,-3.062668 -1.00013,-11.074776 0.0178,-0.927811 -0.60185,-0.894436 16.47478,-0.893324 18.2425,0.0011 17.0299,-0.106798 17.83645,1.581952 0.65636,1.376142 1.21149,1.604201 1.68207,0.688627 0.44722,-0.874412 0.48171,-12.06266 0.0389,-13.138432 -0.48282,-1.175895 -0.9356,-1.105809 -1.78887,0.275896 m 60.13864,-0.921137 c 0,0.09234 -0.39716,0.354883 -0.88109,0.581829 -0.48393,0.226947 -1.14808,0.693078 -1.47404,1.035723 l -0.59295,0.624103 h -23.25091 c -16.2189,0 -23.42557,0.06007 -23.82829,0.200247 -1.01459,0.35377 -0.98789,1.308281 0.0467,1.649813 2.04697,0.675278 1.97244,-0.293695 1.91459,24.795037 l -0.049,21.469822 -0.68863,1.286031 c -0.5529,1.033498 -0.80766,1.324968 -1.29827,1.482941 -0.73312,0.236959 -0.96675,1.121384 -0.40383,1.53189 0.54401,0.398269 16.52706,0.347095 17.09999,-0.05451 0.69753,-0.489492 0.47948,-1.194807 -0.46613,-1.508527 l -0.7754,-0.256984 -0.38381,-1.634239 c -0.356,-1.51854 -0.38381,-2.197155 -0.38381,-9.51841 v -7.884172 l 0.65526,-0.576266 0.65636,-0.575154 9.21693,0.01224 c 10.7121,0.01558 11.45413,0.09567 11.83682,1.279356 0.36045,1.116934 1.18591,1.250432 1.56527,0.252534 0.30482,-0.800988 0.26143,-12.157222 -0.0489,-12.803575 -0.37602,-0.785413 -1.07688,-0.703089 -1.48962,0.175773 -0.24808,0.527317 -0.54178,0.782076 -1.24709,1.085784 -0.50729,0.218046 -1.01904,0.512855 -1.13696,0.655253 -0.17688,0.213596 -1.79221,0.256983 -9.47057,0.256983 h -9.25587 l -0.44276,-0.441656 c -0.95007,-0.951173 -1.345,-9.906667 -0.48727,-11.065875 l 0.4016,-0.544004 h 15.85623 15.85512 l 0.45501,0.455005 c 0.25031,0.250309 0.455,0.527318 0.455,0.615204 0,0.08789 0.31372,0.33597 0.69753,0.550679 0.38269,0.215822 0.89221,0.600741 1.1314,0.8555 0.40828,0.433869 0.88442,0.475031 1.14252,0.0979 0.20803,-0.304821 0.0445,-13.445478 -0.17244,-13.852647 -0.21248,-0.396044 -0.75871,-0.564029 -0.75871,-0.233622 m 119.19261,0.72979 c -0.34153,0.388257 -0.7131,0.866625 -0.82657,1.062422 -0.20025,0.348207 -0.77874,0.358219 -24.01964,0.449443 -22.3943,0.08677 -23.84275,0.112361 -24.31444,0.421631 -0.78097,0.51063 -0.6508,0.975649 0.37824,1.353893 0.48505,0.177997 1.00569,0.438319 1.15921,0.578492 0.24475,0.223609 0.27812,3.091592 0.27812,23.656965 0,26.608385 0.15352,24.251032 -1.622,24.840648 -0.91112,0.301483 -1.06687,0.419406 -1.06687,0.805438 0,0.927812 -0.69197,0.901112 25.90529,1.000123 27.5629,0.102349 25.121,-0.02114 25.78738,1.312731 0.4283,0.857725 1.24598,0.988998 1.52855,0.245859 0.26922,-0.709765 0.15908,-13.518902 -0.11904,-13.797023 -0.39382,-0.392707 -1.09691,-0.01112 -1.47404,0.799876 -0.29926,0.644128 -0.56737,0.879975 -1.56638,1.376142 l -1.20482,0.597404 -16.24114,0.0045 c -15.24103,0.0045 -16.25895,-0.01557 -16.52261,-0.320395 -0.61076,-0.706428 -0.70309,-1.557478 -0.70309,-6.455743 v -4.871566 l 0.47948,-0.570704 0.48059,-0.570704 h 9.81099 9.811 l 0.96118,0.463905 c 0.52843,0.254759 1.05909,0.462793 1.17924,0.462793 0.12015,0 0.43053,0.166873 0.68974,0.37157 0.52731,0.413844 1.24375,0.493943 1.25488,0.13906 0.008,-0.239184 0.004,-12.359693 -0.003,-12.60889 -0.0134,-0.448331 -1.81335,0.208035 -3.07268,1.120271 -1.16143,0.841038 -1.31495,0.852163 -11.28058,0.863288 l -9.43609,0.01001 -0.39159,-0.522867 c -0.78431,-1.049072 -0.73202,-10.845604 0.0601,-11.336209 0.30482,-0.18801 32.40999,-0.110136 32.90949,0.0801 0.25476,0.09679 0.62411,0.491718 0.82101,0.878862 0.67195,1.316068 1.02905,1.491841 1.68876,0.831025 l 0.56402,-0.564029 v -5.812781 c 0,-6.185409 -0.0211,-6.338932 -0.91779,-6.818413 -0.28035,-0.150185 -0.45612,-0.05451 -0.96453,0.522868 M 115.8156,25.015963 c -0.66304,0.07676 -1.67317,0.314833 -2.24499,0.530654 -0.57182,0.21471 -1.73992,0.486156 -2.59654,0.601854 -2.42299,0.32707 -3.1372,0.529542 -3.85587,1.093572 -0.44276,0.348207 -1.15587,0.630778 -2.12706,0.844375 -1.18925,0.262546 -1.60198,0.451668 -2.22497,1.020147 -0.42052,0.383807 -1.078,0.799876 -1.46181,0.924474 -0.39493,0.127936 -0.90222,0.493943 -1.17033,0.845488 -0.259211,0.341532 -0.728671,0.709764 -1.042401,0.818788 -0.31483,0.110136 -0.83102,0.442768 -1.14808,0.739801 -0.31706,0.297033 -1.21594,1.138071 -1.99802,1.870085 -0.78096,0.732015 -1.4707,1.53189 -1.533,1.776637 -0.069,0.277008 -0.35043,0.546229 -0.73647,0.708652 -0.50506,0.210259 -0.68417,0.438319 -0.93448,1.19147 -0.17021,0.511742 -0.42608,1.027935 -0.56848,1.146971 -0.54512,0.452781 -1.193696,1.842273 -1.369469,2.935844 -0.101236,0.627441 -0.292583,1.338318 -0.426081,1.580839 -0.133498,0.242522 -0.393819,0.70754 -0.578492,1.03461 -1.089121,1.92126 -0.849937,14.188617 0.309271,15.850668 0.209147,0.299258 0.52398,1.207045 0.699752,2.018045 0.260321,1.201482 0.439431,1.595302 0.971199,2.143756 0.45501,0.468356 0.74981,1.027935 0.97899,1.857848 0.27255,0.986773 0.43275,1.250432 0.94561,1.551915 0.3393,0.200247 0.73646,0.595178 0.8822,0.876637 0.30148,0.582941 2.52756,2.787884 3.07045,3.040418 0.19802,0.09234 0.35933,0.266996 0.35933,0.389369 0,0.312608 0.55291,0.755376 1.20482,0.963411 0.32485,0.103461 0.76873,0.491718 1.067991,0.935599 0.42052,0.62299 0.6508,0.780963 1.29715,0.887762 1.0869,0.181334 1.78999,0.576266 1.99914,1.124721 0.21471,0.565141 1.18813,1.002347 2.23386,1.002347 0.58851,0 0.91669,0.129048 1.39395,0.548455 0.71532,0.627441 1.48071,0.861062 3.31853,1.011248 0.71311,0.05785 2.88245,0.240296 4.81928,0.404944 3.91261,0.332632 7.0843,0.281458 11.4775,-0.18356 4.09171,-0.431644 4.04721,-0.420519 5.5969,-1.465141 0.56514,-0.38047 1.08022,-0.539555 2.03474,-0.629666 1.18257,-0.110136 1.32385,-0.171322 1.91792,-0.832138 0.43609,-0.486155 0.93448,-0.800988 1.56637,-0.988998 1.13808,-0.338195 1.72547,-0.708652 1.87676,-1.185907 0.0656,-0.208035 0.46391,-0.497281 0.9267,-0.674166 0.54401,-0.206921 0.87998,-0.473918 1.01793,-0.807663 0.11347,-0.273671 0.50729,-0.659702 0.87441,-0.857725 0.36823,-0.198022 0.86885,-0.661927 1.11359,-1.031272 0.24475,-0.369345 0.64969,-0.765389 0.90112,-0.879975 0.26032,-0.119035 0.58294,-0.525092 0.75092,-0.946723 0.16354,-0.406057 0.45946,-0.790976 0.65971,-0.854388 0.22138,-0.07009 0.65302,-0.704202 1.09579,-1.611988 0.40272,-0.823238 0.89555,-1.610877 1.09469,-1.75105 0.42608,-0.299258 0.74647,-1.322743 0.74759,-2.395177 0.001,-0.512855 0.15018,-0.964524 0.45834,-1.390605 0.25142,-0.345982 0.59518,-0.817675 0.76316,-1.046847 0.49394,-0.674165 0.67639,-3.298514 0.58406,-8.390352 -0.0912,-5.061801 -0.17466,-5.574656 -1.07355,-6.613715 -0.49061,-0.567367 -0.5796,-0.885537 -0.83325,-2.980344 -0.0645,-0.536217 -0.19135,-1.019035 -0.28146,-1.074659 -0.25587,-0.157973 -1.38727,-1.965759 -1.65204,-2.638812 -0.13127,-0.334857 -0.47948,-0.779851 -0.77429,-0.988998 -0.29369,-0.210259 -0.64969,-0.656365 -0.79097,-0.992335 -0.23029,-0.551792 -0.85328,-1.228182 -3.01372,-3.27404 -0.39048,-0.368232 -1.04574,-0.841037 -1.45624,-1.049072 -0.41162,-0.208034 -0.86106,-0.589616 -0.99901,-0.8466 -0.13795,-0.258096 -0.51063,-0.575154 -0.82769,-0.706427 -0.31817,-0.131273 -0.92559,-0.558467 -1.35056,-0.948948 -0.61297,-0.562917 -1.10135,-0.798764 -2.35067,-1.132509 -0.92336,-0.245859 -1.85563,-0.633003 -2.25056,-0.934486 -0.5173,-0.394932 -1.07132,-0.578492 -2.37849,-0.788751 -1.83115,-0.294808 -3.14499,-0.592954 -4.76365,-1.082447 -1.14697,-0.345982 -8.01879,-0.545117 -10.19703,-0.29592 m 9.82657,10.416184 c 0.90556,0.166873 1.37169,0.37157 1.87231,0.819901 0.39048,0.350432 0.96786,0.64969 1.3906,0.723114 1.66206,0.287021 1.68764,0.300371 2.01583,1.027935 0.23695,0.525092 0.51063,0.786526 1.04462,0.995673 0.42274,0.16576 0.85438,0.513968 1.04128,0.838813 0.17466,0.305933 0.55736,0.696415 0.84883,0.86885 0.29147,0.172434 0.68084,0.664152 0.8644,1.092458 0.18467,0.429419 0.54178,0.915575 0.79431,1.081335 0.2848,0.186897 0.58183,0.677502 0.77874,1.287143 0.17577,0.54178 0.62521,1.569715 0.99901,2.283929 l 0.67973,1.297156 v 4.449935 c 0,4.711368 -0.0656,5.143012 -1.0424,6.860687 -0.17355,0.305933 -0.42163,0.915574 -0.54957,1.355005 -0.12905,0.439431 -0.54178,1.149196 -0.91668,1.576389 -0.37602,0.427194 -0.73981,0.956736 -0.80989,1.178121 -0.069,0.220271 -0.49951,0.706427 -0.95563,1.080221 -0.45611,0.373795 -0.95117,0.914462 -1.10024,1.201483 -0.15019,0.292583 -0.53177,0.612978 -0.86663,0.729789 -0.32929,0.114586 -0.85661,0.490605 -1.17255,0.836588 -0.53733,0.585166 -2.0314,1.220394 -2.87466,1.220394 -0.16576,0 -0.79765,0.299258 -1.40284,0.665265 -2.21718,1.340543 -9.51396,1.400617 -12.22509,0.102349 -0.81656,-0.391594 -1.97799,-0.816563 -2.58096,-0.944499 -0.85772,-0.18356 -1.27936,-0.404944 -1.94685,-1.024597 -0.46835,-0.434981 -1.04239,-0.849938 -1.2749,-0.921137 -0.23362,-0.07231 -0.62522,-0.449443 -0.87108,-0.838812 -0.24474,-0.38937 -0.68306,-0.875525 -0.97231,-1.082447 -0.29036,-0.205809 -0.64746,-0.610754 -0.7932,-0.899999 -0.14685,-0.289246 -0.56737,-0.863288 -0.9356,-1.274907 -0.50506,-0.567366 -0.72311,-1.029047 -0.89443,-1.894559 -0.12349,-0.630779 -0.31261,-1.20037 -0.42052,-1.267119 -0.10791,-0.06675 -0.31929,-0.381582 -0.46836,-0.700865 -0.15018,-0.319283 -0.40272,-0.823238 -0.5618,-1.120271 -0.73202,-1.362793 -0.49617,-9.110129 0.30816,-10.114702 0.6775,-0.847712 0.94672,-1.484053 1.08133,-2.556487 0.11459,-0.923362 0.20692,-1.105809 0.72645,-1.432879 0.32707,-0.20581 0.76094,-0.719777 0.96452,-1.142521 0.20359,-0.421631 0.56626,-0.922249 0.80767,-1.112484 0.24029,-0.189122 0.59073,-0.578491 0.77874,-0.864399 0.18689,-0.287021 0.6508,-0.679728 1.03016,-0.8733 0.38047,-0.193572 0.85883,-0.636341 1.06353,-0.983436 0.32818,-0.555129 0.53622,-0.67194 1.7288,-0.964523 0.97009,-0.238071 1.49073,-0.477255 1.82892,-0.84215 0.47281,-0.51063 0.63523,-0.552905 3.81026,-0.993448 1.0869,-0.151298 7.99208,0.05674 9.17799,0.277008"
       stroke="none"
       fill="#cec1b1"
       fill-rule="evenodd"
       style="fill:#ffffff;fill-opacity:1;stroke-width:1.11248" />
  </g>
</svg>
