<?xml version="1.0" encoding="UTF-8" standalone="no"?>
<!-- Uploaded to: SVG Repo, www.svgrepo.com, Generator: SVG Repo Mixer Tools -->

<svg
   width="669.17572"
   height="641.341"
   viewBox="0 0 20.075272 19.24023"
   fill="none"
   version="1.1"
   id="svg1"
   sodipodi:docname="star-sharp-svgrepo-com.svg"
   xmlns:inkscape="http://www.inkscape.org/namespaces/inkscape"
   xmlns:sodipodi="http://sodipodi.sourceforge.net/DTD/sodipodi-0.dtd"
   xmlns="http://www.w3.org/2000/svg"
   xmlns:svg="http://www.w3.org/2000/svg">
  <defs
     id="defs1" />
  <sodipodi:namedview
     id="namedview1"
     pagecolor="#ffffff"
     bordercolor="#000000"
     borderopacity="0.25"
     inkscape:showpageshadow="2"
     inkscape:pageopacity="0.0"
     inkscape:pagecheckerboard="0"
     inkscape:deskcolor="#d1d1d1">
    <inkscape:page
       x="0"
       y="0"
       width="20.075272"
       height="19.240231"
       id="page2"
       margin="0"
       bleed="0" />
  </sodipodi:namedview>
  <path
     d="m 9.2819775,2.1505646 c 0.2315,-0.66592 0.3472,-0.99887 0.5184,-1.09115 0.1481,-0.0798699 0.3264005,-0.0798699 0.4746005,0 0.1711,0.09228 0.2868,0.42523 0.5183,1.09115 l 1.5303,4.40239 c 0.0659,0.18953 0.0988,0.28429 0.1582,0.35486 0.0524,0.06234 0.1193,0.11093 0.1948,0.14153 0.0854,0.03465 0.1857,0.03669 0.3863,0.04078 l 4.6598,0.09496 c 0.7049,0.01436 1.0573,0.02155 1.198,0.1558 0.1217,0.11619 0.1768,0.28582 0.1466,0.45137 -0.0348,0.19131 -0.3157,0.40421 -0.8775,0.83021 l -3.7141,2.8157004 c -0.1599,0.1213 -0.2398,0.1819 -0.2886,0.2601 -0.0431,0.0692 -0.0686,0.1478 -0.0744,0.229 -0.0065,0.092 0.0225,0.188 0.0806,0.3801 l 1.3497,4.4611 c 0.2041,0.6748 0.3062,1.0122 0.222,1.1874 -0.0729,0.1517 -0.2172,0.2565 -0.384,0.279 -0.1927,0.0259 -0.482,-0.1754 -1.0607,-0.5781 l -3.8257,-2.6621 c -0.1647,-0.1146 -0.247,-0.1719 -0.3365,-0.1942 -0.0791,-0.0196 -0.1618005,-0.0196 -0.2408005,0 -0.0895,0.0223 -0.1719,0.0796 -0.3366,0.1942 l -3.82565,2.6621 c -0.57868,0.4027 -0.86802,0.604 -1.06072,0.5781 -0.16677,-0.0225 -0.31107,-0.1273 -0.38396,-0.279 -0.08422,-0.1752 0.01786,-0.5126 0.22201,-1.1874 l 1.34965,-4.4611 c 0.0581,-0.1921 0.08715,-0.2881 0.08061,-0.3801 -0.00578,-0.0812 -0.03132,-0.1598 -0.07441,-0.229 -0.04877,-0.0782 -0.12872,-0.1388 -0.28861,-0.2601 l -3.71404,-2.8157004 c -0.5618,-0.426 -0.8427,-0.6389 -0.87757,-0.83021 -0.03019,-0.16555 0.02493,-0.33518 0.14666,-0.45137 0.14064,-0.13425 0.49307,-0.14143 1.19792,-0.1558 l 4.65981,-0.09496 c 0.2006,-0.00409 0.30091,-0.00613 0.38637,-0.04078 0.07549,-0.0306 0.14237,-0.07919 0.1948,-0.14153 0.05936,-0.07057 0.0923,-0.16533 0.15818,-0.35486 z"
     stroke="#000000"
     stroke-width="2"
     stroke-linecap="round"
     stroke-linejoin="round"
     id="path1"
     style="fill:#ff6500;fill-opacity:1;stroke:#ff6500;stroke-opacity:1" />
</svg>
